<?xml version="1.0" encoding="UTF-8" standalone="no"?>
<!-- Created with Inkscape (http://www.inkscape.org/) -->

<svg
   xmlns:dc="http://purl.org/dc/elements/1.1/"
   xmlns:cc="http://creativecommons.org/ns#"
   xmlns:rdf="http://www.w3.org/1999/02/22-rdf-syntax-ns#"
   xmlns:svg="http://www.w3.org/2000/svg"
   xmlns="http://www.w3.org/2000/svg"
   xmlns:sodipodi="http://sodipodi.sourceforge.net/DTD/sodipodi-0.dtd"
   xmlns:inkscape="http://www.inkscape.org/namespaces/inkscape"
   version="1.1"
   id="svg815"
   width="3406.6667"
   height="2365.3333"
   viewBox="0 0 3406.6667 2365.3333"
   sodipodi:docname="OTG_LOGO.svg"
   inkscape:version="0.92.3 (2405546, 2018-03-11)">
  <metadata
     id="metadata821">
    <rdf:RDF>
      <cc:Work
         rdf:about="">
        <dc:format>image/svg+xml</dc:format>
        <dc:type
           rdf:resource="http://purl.org/dc/dcmitype/StillImage" />
        <dc:title></dc:title>
      </cc:Work>
    </rdf:RDF>
  </metadata>
  <defs
     id="defs819" />
  <sodipodi:namedview
     pagecolor="#ffffff"
     bordercolor="#666666"
     borderopacity="1"
     objecttolerance="10"
     gridtolerance="10"
     guidetolerance="10"
     inkscape:pageopacity="0"
     inkscape:pageshadow="2"
     inkscape:window-width="3840"
     inkscape:window-height="1547"
     id="namedview817"
     showgrid="false"
     inkscape:zoom="0.12211942"
     inkscape:cx="-2461.8046"
     inkscape:cy="2262.8526"
     inkscape:window-x="-8"
     inkscape:window-y="-8"
     inkscape:window-maximized="1"
     inkscape:current-layer="svg815" />
  <path
     style="fill:#000000;fill-opacity:1;stroke:none;stroke-width:1.33333337"
     d="m 3289.4374,1422.4266 c -320.3932,-214.8783 -645.6383,-327.8164 -908.7822,-315.5654 -19.914,0.9271 -39.8072,2.0901 -44.2072,2.5844 l -8,0.8987 6,0.9333 c 3.3,0.5133 18,2.445 32.6667,4.2927 127.2632,16.0325 249.9443,47.8265 330,85.5227 15.214,7.1639 48.3843,25.8385 47.4876,26.7352 -0.2571,0.257 -5.7968,-1.0812 -12.3108,-2.9739 -74.1215,-21.5366 -178.584,-40.37 -265.8435,-47.9286 -74.6706,-6.4681 -158.4721,-6.447 -224,0.056 -100.5416,9.9785 -187.7418,32.4034 -266.7749,68.6055 -9.5711,4.3842 -20.8121,10.2722 -24.9803,13.0845 -4.168,2.8124 -20.7781,13.199 -36.9114,23.0814 -149.4742,91.56 -295.1386,162.2874 -404.6667,196.486 -64.4596,20.1266 -120.5927,30.6866 -171.3334,32.2322 -77.7296,2.3675 -139.5446,-16.5674 -178.426,-54.6549 -34.8706,-34.1585 -46.6653,-65.5117 -46.5016,-123.6121 0.085,-30.2508 3.5849,-57.3218 11.8374,-91.5662 l 3.5906,-14.8994 4.7498,2.4166 c 25.4715,12.9595 75.9862,21.4622 115.4165,19.4269 69.9696,-3.6117 134.1517,-21.9916 215.7852,-61.7947 l 31.7852,-15.4979 3.6888,-8.0427 c 4.43,-9.6584 603.9464,-1077.438571 609.3442,-1085.283771 26.172,-38.03971 76.594,-57.13693 122.0633,-46.23126 13.5349,3.2463 33.4393,12.4705 49.278,22.83668 26.6203,17.42248 44.2935,43.84727 50.7992,75.954601 4.458,22.00069 1.1297,49.38558 -8.4896,69.85462 -2.1091,4.48795 -111.0743,194.36473 -242.1448,421.94842 -131.0707,227.5837 -238.1151,413.96011 -237.8765,414.16971 0.2385,0.2096 14.3009,-3.1025 31.2498,-7.3602 71.7939,-18.0353 143.5619,-30.13421 206.0362,-34.73421 l 22.1856,-1.6336 189.7194,-341.448 c 104.3456,-187.7967 192.396,-345.64845 195.6674,-350.78179 21.5364,-33.79448 61.6221,-54.26117 102.242,-52.20204 18.4818,0.9369 28.4617,3.47015 45.679,11.59499 34.633,16.34333 55.0674,35.41403 67.624,63.1112 14.4575,31.89025 13.9783,69.17165 -1.2782,99.43842 -2.4187,4.79826 -83.6638,149.95972 -180.5446,322.58112 -96.8808,172.6214 -176.1469,313.98941 -176.1469,314.15111 0,0.1617 12.75,0.6923 28.3333,1.1791 58.5555,1.8291 105.1728,5.5582 154.0234,12.321 14.1293,1.956 25.903,3.3169 26.1636,3.0241 0.2606,-0.2927 70.8193,-127.13231 156.7973,-281.86571 85.9779,-154.7333 158.2975,-284.0333 160.7104,-287.3333 11.4029,-15.5954 31.0569,-30.984 49.24,-38.5536 16.2037,-6.74564 26.0764,-8.599 45.3987,-8.52255 21.2469,0.0841 32.8213,2.82043 52,12.29345 33.863,16.7263 51.8646,33.4869 64.5668,60.116 8.6486,18.1312 11.1734,29.5798 11.1734,50.6667 0,19.9376 -2.4948,32.2671 -9.6022,47.4563 -2.0906,4.4677 -67.5407,121.9739 -145.4446,261.125 -77.904,139.15111 -141.1298,253.45711 -140.5018,254.01351 0.628,0.5564 7.4417,3.2727 15.1417,6.0362 85.3495,30.6314 201.2369,82.2218 283.3333,126.1335 129.2335,88.9949 555.5764,390.5606 192.9894,146.124 z M 1802.8483,1129.5678 c 52.9663,-14.0821 139.3331,-31.6545 212.7109,-43.2787 20.0446,-3.1754 36.934,-6.2934 37.5322,-6.9288 2.0248,-2.1513 26.8444,-47.4456 26.2978,-47.9921 -0.8896,-0.8896 -45.0881,8.5444 -69.6581,14.8682 -59.1759,15.2306 -115.4375,35.2756 -172.0364,61.2936 -24.9861,11.4858 -53.2657,25.9393 -50.8464,25.987 0.5869,0.012 7.7869,-1.7655 16,-3.9492 z"
     id="path4514"
     inkscape:connector-curvature="0"
     inkscape:export-xdpi="84.673637"
     inkscape:export-ydpi="84.673637"
     inkscape:export-filename="C:\Users\Kian\path4514.png"
     sodipodi:nodetypes="cccccsscsscccssccccccsscccscccsccccscssccsscccscccccscssccccsccsccc" />
</svg>
